<svg width="15" height="17" viewBox="0 0 15 17" fill="none" xmlns="http://www.w3.org/2000/svg">
<path d="M13.5399 15.9664L13.1828 15.0695C13.0022 14.6145 12.7217 14.2064 12.3625 13.8737L12.2972 13.8136C11.732 13.2891 10.9892 12.9973 10.2179 12.9973H5.10209C4.33075 12.9973 3.58798 13.2891 3.02171 13.8125L2.95641 13.8737C2.59727 14.2064 2.31771 14.6145 2.1361 15.0695L1.77899 15.9664" stroke="white" stroke-width="1.77404" stroke-linecap="round" stroke-linejoin="round"/>
<path d="M10.1849 2.81998C11.5795 4.21456 11.5795 6.47561 10.1849 7.87019C8.79037 9.26477 6.52932 9.26477 5.13474 7.87019C3.74016 6.47561 3.74016 4.21456 5.13474 2.81998C6.52932 1.4254 8.79037 1.4254 10.1849 2.81998" stroke="white" stroke-width="1.77404" stroke-linecap="round" stroke-linejoin="round"/>
</svg>
